//8 Notas
//Taken from https://www.arduino.cc/en/Tutorial/toneMelody
int melodia1[] = {NOTE_C4, NOTE_G3, NOTE_G3, NOTE_A3, NOTE_G3, 0, NOTE_B3, NOTE_C4};
int melodia1Durations[] = {	250, 125, 125, 250, 250, 250, 250, 250 };

//x notas
//Autoria propria
int despacito[] = {NOTE_D5,NOTE_CS5,NOTE_B4,NOTE_FS4,0,NOTE_FS4,NOTE_FS4,NOTE_FS4,NOTE_FS4,NOTE_FS4,NOTE_B4,NOTE_G4,NOTE_G6};
//14 notas
//Autoria propria
int starWars[] = {NOTE_G4, NOTE_G4, NOTE_G4, NOTE_DS4, NOTE_GS4, NOTE_G4, NOTE_DS4, NOTE_GS4, NOTE_G4, 0, NOTE_E5, NOTE_E5, NOTE_E5, NOTE_F5};
int starWarsDuration[] = {500,500,500,350,150,500,350,150,650, 350, 500, 500, 500, 350};

//203 notas
//Autoria: https://github.com/xitangg
int piratasDoCaribe[] = {       //Note of the song, 0 is a rest/pulse
	NOTE_E4, NOTE_G4, NOTE_A4, NOTE_A4, 0,
	NOTE_A4, NOTE_B4, NOTE_C5, NOTE_C5, 0,
	NOTE_C5, NOTE_D5, NOTE_B4, NOTE_B4, 0,
	NOTE_A4, NOTE_G4, NOTE_A4, 0,
	
	NOTE_E4, NOTE_G4, NOTE_A4, NOTE_A4, 0,
	NOTE_A4, NOTE_B4, NOTE_C5, NOTE_C5, 0,
	NOTE_C5, NOTE_D5, NOTE_B4, NOTE_B4, 0,
	NOTE_A4, NOTE_G4, NOTE_A4, 0,
	
	NOTE_E4, NOTE_G4, NOTE_A4, NOTE_A4, 0,
	NOTE_A4, NOTE_C5, NOTE_D5, NOTE_D5, 0,
	NOTE_D5, NOTE_E5, NOTE_F5, NOTE_F5, 0,
	NOTE_E5, NOTE_D5, NOTE_E5, NOTE_A4, 0,
	
	NOTE_A4, NOTE_B4, NOTE_C5, NOTE_C5, 0,
	NOTE_D5, NOTE_E5, NOTE_A4, 0,
	NOTE_A4, NOTE_C5, NOTE_B4, NOTE_B4, 0,
	NOTE_C5, NOTE_A4, NOTE_B4, 0,

	NOTE_A4, NOTE_A4,
	//Repeat of first part
	NOTE_A4, NOTE_B4, NOTE_C5, NOTE_C5, 0,
	NOTE_C5, NOTE_D5, NOTE_B4, NOTE_B4, 0,
	NOTE_A4, NOTE_G4, NOTE_A4, 0,

	NOTE_E4, NOTE_G4, NOTE_A4, NOTE_A4, 0,
	NOTE_A4, NOTE_B4, NOTE_C5, NOTE_C5, 0,
	NOTE_C5, NOTE_D5, NOTE_B4, NOTE_B4, 0,
	NOTE_A4, NOTE_G4, NOTE_A4, 0,
	
	NOTE_E4, NOTE_G4, NOTE_A4, NOTE_A4, 0,
	NOTE_A4, NOTE_C5, NOTE_D5, NOTE_D5, 0,
	NOTE_D5, NOTE_E5, NOTE_F5, NOTE_F5, 0,
	NOTE_E5, NOTE_D5, NOTE_E5, NOTE_A4, 0,
	
	NOTE_A4, NOTE_B4, NOTE_C5, NOTE_C5, 0,
	NOTE_D5, NOTE_E5, NOTE_A4, 0,
	NOTE_A4, NOTE_C5, NOTE_B4, NOTE_B4, 0,
	NOTE_C5, NOTE_A4, NOTE_B4, 0,
	//End of Repeat

	NOTE_E5, 0, 0, NOTE_F5, 0, 0,
	NOTE_E5, NOTE_E5, 0, NOTE_G5, 0, NOTE_E5, NOTE_D5, 0, 0,
	NOTE_D5, 0, 0, NOTE_C5, 0, 0,
	NOTE_B4, NOTE_C5, 0, NOTE_B4, 0, NOTE_A4,

	NOTE_E5, 0, 0, NOTE_F5, 0, 0,
	NOTE_E5, NOTE_E5, 0, NOTE_G5, 0, NOTE_E5, NOTE_D5, 0, 0,
	NOTE_D5, 0, 0, NOTE_C5, 0, 0,
	NOTE_B4, NOTE_C5, 0, NOTE_B4, 0, NOTE_A4
};

int piratasDuration[] = {         //duration of each note (in ms) Quarter Note is set to 250 ms
	125, 125, 250, 125, 125,
	125, 125, 250, 125, 125,
	125, 125, 250, 125, 125,
	125, 125, 375, 125,
	
	125, 125, 250, 125, 125,
	125, 125, 250, 125, 125,
	125, 125, 250, 125, 125,
	125, 125, 375, 125,
	
	125, 125, 250, 125, 125,
	125, 125, 250, 125, 125,
	125, 125, 250, 125, 125,
	125, 125, 125, 250, 125,

	125, 125, 250, 125, 125,
	250, 125, 250, 125,
	125, 125, 250, 125, 125,
	125, 125, 375, 375,

	250, 125,
	//Rpeat of First Part
	125, 125, 250, 125, 125,
	125, 125, 250, 125, 125,
	125, 125, 375, 125,
	
	125, 125, 250, 125, 125,
	125, 125, 250, 125, 125,
	125, 125, 250, 125, 125,
	125, 125, 375, 125,
	
	125, 125, 250, 125, 125,
	125, 125, 250, 125, 125,
	125, 125, 250, 125, 125,
	125, 125, 125, 250, 125,

	125, 125, 250, 125, 125,
	250, 125, 250, 125,
	125, 125, 250, 125, 125,
	125, 125, 375, 375,
	//End of Repeat
	
	250, 125, 375, 250, 125, 375,
	125, 125, 125, 125, 125, 125, 125, 125, 375,
	250, 125, 375, 250, 125, 375,
	125, 125, 125, 125, 125, 500,

	250, 125, 375, 250, 125, 375,
	125, 125, 125, 125, 125, 125, 125, 125, 375,
	250, 125, 375, 250, 125, 375,
	125, 125, 125, 125, 125, 500
};